<svg width="1000" height="1000" viewBox="0 0 1000 1000" fill="none" xmlns="http://www.w3.org/2000/svg">
<rect width="1000" height="1000" fill="#F5F5F5"/>
<rect width="1000" height="1000" fill="#F6F5F2"/>
<path d="M449.4 321C449.133 321 449 320.6 449 319.8C449 319 449.133 318.6 449.4 318.6C454.467 318.6 458.2 318.267 460.6 317.6C463 316.933 464.6 315.667 465.4 313.8C466.333 311.8 466.8 308.8 466.8 304.8V212.2C466.8 208.2 466.333 205.267 465.4 203.4C464.6 201.533 463 200.267 460.6 199.6C458.333 198.8 454.667 198.4 449.6 198.4C449.333 198.4 449.2 198 449.2 197.2C449.2 196.4 449.333 196 449.6 196H530C531.2 196 531.8 196.6 531.8 197.8L532.2 222.4C532.2 222.8 531.8 223.067 531 223.2C530.333 223.2 530 223 530 222.6C529.6 215.533 527.467 210.067 523.6 206.2C519.733 202.2 514.6 200.2 508.2 200.2H496C491.467 200.2 488.067 200.533 485.8 201.2C483.533 201.867 481.933 203.067 481 204.8C480.067 206.533 479.6 209.067 479.6 212.4V304C479.6 308.267 480.133 311.4 481.2 313.4C482.4 315.267 484.667 316.6 488 317.4C491.467 318.2 496.8 318.6 504 318.6C504.4 318.6 504.6 319 504.6 319.8C504.6 320.6 504.4 321 504 321C498.533 321 494.267 320.933 491.2 320.8L473.2 320.6L459.6 320.8C457.2 320.933 453.8 321 449.4 321ZM519.8 276.8C519.8 270.933 518.2 266.733 515 264.2C511.933 261.667 506.733 260.4 499.4 260.4H473.6V256.2H500C507.067 256.2 512.067 255.133 515 253C518.067 250.733 519.6 247.133 519.6 242.2C519.6 241.933 520 241.8 520.8 241.8C521.6 241.8 522 241.933 522 242.2L521.8 258.4C521.8 262.267 521.867 265.2 522 267.2L522.2 276.8C522.2 277.067 521.8 277.2 521 277.2C520.2 277.2 519.8 277.067 519.8 276.8ZM449.6 563C449.333 563 449.2 562.6 449.2 561.8C449.2 561 449.333 560.6 449.6 560.6C454.667 560.6 458.333 560.267 460.6 559.6C463 558.933 464.6 557.667 465.4 555.8C466.333 553.8 466.8 550.8 466.8 546.8V454.2C466.8 450.2 466.333 447.267 465.4 445.4C464.6 443.533 463 442.267 460.6 441.6C458.333 440.8 454.667 440.4 449.6 440.4C449.333 440.4 449.2 440 449.2 439.2C449.2 438.4 449.333 438 449.6 438H530C531.2 438 531.8 438.6 531.8 439.8L532.2 464.4C532.2 464.8 531.8 465.067 531 465.2C530.333 465.2 530 465 530 464.6C529.6 457.533 527.467 452.067 523.6 448.2C519.733 444.2 514.6 442.2 508.2 442.2H496C491.333 442.2 487.867 442.6 485.6 443.4C483.333 444.067 481.733 445.267 480.8 447C480 448.733 479.6 451.467 479.6 455.2V546C479.6 549.6 480 552.333 480.8 554.2C481.733 555.933 483.267 557.133 485.4 557.8C487.533 558.467 490.867 558.8 495.4 558.8H511.4C517.8 558.8 523.133 556.533 527.4 552C531.667 547.467 534.533 541.2 536 533.2C536 532.933 536.267 532.8 536.8 532.8C537.2 532.8 537.533 532.933 537.8 533.2C538.2 533.333 538.4 533.467 538.4 533.6C537.2 542 536.6 550.8 536.6 560C536.6 561.067 536.333 561.867 535.8 562.4C535.4 562.8 534.6 563 533.4 563H449.6ZM522.2 516.4C522.2 510.533 520.733 506.333 517.8 503.8C515 501.267 510.267 500 503.6 500H473.6V495.8H504.2C510.6 495.8 515.133 494.733 517.8 492.6C520.6 490.467 522 486.867 522 481.8C522 481.533 522.4 481.4 523.2 481.4C524 481.4 524.4 481.533 524.4 481.8L524.2 498C524.2 501.867 524.267 504.8 524.4 506.8L524.6 516.4C524.6 516.667 524.2 516.8 523.4 516.8C522.6 516.8 522.2 516.667 522.2 516.4ZM531.2 701.4C534.133 696.733 535.6 692.8 535.6 689.6C535.6 684.8 532 682.4 524.8 682.4C524.533 682.4 524.4 682 524.4 681.2C524.4 680.4 524.533 680 524.8 680L534.2 680.2C539.267 680.467 543.933 680.6 548.2 680.6C550.467 680.6 553.2 680.467 556.4 680.2L563.8 680C564.067 680 564.2 680.4 564.2 681.2C564.2 682 564.067 682.4 563.8 682.4C559 682.4 554.133 684.2 549.2 687.8C544.267 691.267 539.867 696.067 536 702.2L504.6 750.4L501.2 747.4L531.2 701.4ZM463 697.8C459.267 692.067 455.733 688.067 452.4 685.8C449.067 683.533 445.2 682.4 440.8 682.4C440.4 682.4 440.2 682 440.2 681.2C440.2 680.4 440.4 680 440.8 680C442.4 680 444.8 680.133 448 680.4L455 680.6C459.533 680.6 465.267 680.467 472.2 680.2L483 680C483.267 680 483.4 680.4 483.4 681.2C483.4 682 483.267 682.4 483 682.4C476.067 682.4 472.6 683.8 472.6 686.6C472.6 688.067 473.267 689.667 474.6 691.4L508.8 741.6L499 750.6L463 697.8ZM509.2 741.2V788.8C509.2 792.933 509.6 795.933 510.4 797.8C511.2 799.667 512.733 800.933 515 801.6C517.4 802.267 521.133 802.6 526.2 802.6C526.6 802.6 526.8 803 526.8 803.8C526.8 804.6 526.6 805 526.2 805C522.067 805 518.867 804.933 516.6 804.8L502.6 804.6L488.8 804.8C486.4 804.933 483.133 805 479 805C478.6 805 478.4 804.6 478.4 803.8C478.4 803 478.6 802.6 479 802.6C484.067 802.6 487.733 802.267 490 801.6C492.4 800.933 494 799.667 494.8 797.8C495.733 795.8 496.2 792.8 496.2 788.8V743L509.2 741.2Z" fill="#111111"/>
<path d="M465.4 313.8L464.947 313.589C464.945 313.593 464.943 313.598 464.94 313.603L465.4 313.8ZM465.4 203.4L464.94 203.597C464.944 203.606 464.948 203.615 464.953 203.624L465.4 203.4ZM460.6 199.6L460.434 200.071C460.444 200.075 460.455 200.079 460.466 200.082L460.6 199.6ZM531.8 197.8H531.3L531.3 197.808L531.8 197.8ZM532.2 222.4H532.7L532.7 222.392L532.2 222.4ZM531 223.2V223.7C531.028 223.7 531.055 223.698 531.082 223.693L531 223.2ZM530 222.6H530.5C530.5 222.591 530.5 222.581 530.499 222.572L530 222.6ZM523.6 206.2L523.24 206.548L523.246 206.554L523.6 206.2ZM485.8 201.2L485.659 200.72V200.72L485.8 201.2ZM481 204.8L480.56 204.563V204.563L481 204.8ZM481.2 313.4L480.759 313.635C480.765 313.647 480.772 313.659 480.779 313.67L481.2 313.4ZM488 317.4L487.883 317.886L487.888 317.887L488 317.4ZM491.2 320.8L491.222 320.3C491.216 320.3 491.211 320.3 491.206 320.3L491.2 320.8ZM473.2 320.6L473.206 320.1L473.193 320.1L473.2 320.6ZM459.6 320.8L459.593 320.3C459.586 320.3 459.579 320.3 459.572 320.301L459.6 320.8ZM515 264.2L514.681 264.586L514.69 264.592L515 264.2ZM473.6 260.4H473.1C473.1 260.676 473.324 260.9 473.6 260.9V260.4ZM473.6 256.2V255.7C473.324 255.7 473.1 255.924 473.1 256.2H473.6ZM515 253L515.294 253.404L515.297 253.402L515 253ZM522 242.2L522.5 242.206V242.2H522ZM521.8 258.4L521.3 258.394V258.4H521.8ZM522 267.2L522.5 267.19C522.5 267.182 522.499 267.174 522.499 267.167L522 267.2ZM522.2 276.8H522.7L522.7 276.79L522.2 276.8ZM449.4 321V320.5C449.475 320.5 449.541 320.534 449.579 320.571C449.604 320.597 449.594 320.601 449.574 320.542C449.534 320.42 449.5 320.185 449.5 319.8H449H448.5C448.5 320.215 448.533 320.58 448.626 320.858C448.714 321.123 448.935 321.5 449.4 321.5V321ZM449 319.8H449.5C449.5 319.415 449.534 319.18 449.574 319.058C449.594 318.999 449.604 319.003 449.579 319.029C449.541 319.066 449.475 319.1 449.4 319.1V318.6V318.1C448.935 318.1 448.714 318.477 448.626 318.742C448.533 319.02 448.5 319.385 448.5 319.8H449ZM449.4 318.6V319.1C454.475 319.1 458.265 318.767 460.734 318.082L460.6 317.6L460.466 317.118C458.135 317.766 454.458 318.1 449.4 318.1V318.6ZM460.6 317.6L460.734 318.082C463.243 317.385 464.986 316.035 465.86 313.997L465.4 313.8L464.94 313.603C464.214 315.299 462.757 316.482 460.466 317.118L460.6 317.6ZM465.4 313.8L465.853 314.011C466.833 311.911 467.3 308.823 467.3 304.8H466.8H466.3C466.3 308.777 465.834 311.689 464.947 313.589L465.4 313.8ZM466.8 304.8H467.3V212.2H466.8H466.3V304.8H466.8ZM466.8 212.2H467.3C467.3 208.181 466.834 205.151 465.847 203.176L465.4 203.4L464.953 203.624C465.832 205.383 466.3 208.219 466.3 212.2H466.8ZM465.4 203.4L465.86 203.203C464.986 201.165 463.243 199.815 460.734 199.118L460.6 199.6L460.466 200.082C462.757 200.718 464.214 201.901 464.94 203.597L465.4 203.4ZM460.6 199.6L460.766 199.128C458.414 198.298 454.675 197.9 449.6 197.9V198.4V198.9C454.659 198.9 458.252 199.302 460.434 200.071L460.6 199.6ZM449.6 198.4V197.9C449.675 197.9 449.741 197.934 449.779 197.971C449.804 197.997 449.794 198.001 449.774 197.942C449.734 197.82 449.7 197.585 449.7 197.2H449.2H448.7C448.7 197.615 448.733 197.98 448.826 198.258C448.914 198.523 449.135 198.9 449.6 198.9V198.4ZM449.2 197.2H449.7C449.7 196.815 449.734 196.58 449.774 196.458C449.794 196.399 449.804 196.403 449.779 196.429C449.741 196.466 449.675 196.5 449.6 196.5V196V195.5C449.135 195.5 448.914 195.877 448.826 196.142C448.733 196.42 448.7 196.785 448.7 197.2H449.2ZM449.6 196V196.5H530V196V195.5H449.6V196ZM530 196V196.5C530.523 196.5 530.823 196.63 530.996 196.804C531.17 196.977 531.3 197.277 531.3 197.8H531.8H532.3C532.3 197.123 532.13 196.523 531.704 196.096C531.277 195.67 530.677 195.5 530 195.5V196ZM531.8 197.8L531.3 197.808L531.7 222.408L532.2 222.4L532.7 222.392L532.3 197.792L531.8 197.8ZM532.2 222.4H531.7C531.7 222.412 531.698 222.414 531.696 222.418C531.692 222.424 531.675 222.449 531.623 222.484C531.509 222.56 531.29 222.645 530.918 222.707L531 223.2L531.082 223.693C531.51 223.622 531.891 223.507 532.177 223.316C532.484 223.111 532.7 222.803 532.7 222.4H532.2ZM531 223.2V222.7C530.7 222.7 530.559 222.652 530.507 222.621C530.489 222.61 530.493 222.608 530.5 222.62C530.506 222.63 530.5 222.629 530.5 222.6H530H529.5C529.5 222.969 529.67 223.285 529.993 223.479C530.275 223.648 530.633 223.7 531 223.7V223.2ZM530 222.6L530.499 222.572C530.094 215.419 527.93 209.823 523.954 205.846L523.6 206.2L523.246 206.554C527.003 210.31 529.106 215.647 529.501 222.628L530 222.6ZM523.6 206.2L523.959 205.852C519.984 201.74 514.713 199.7 508.2 199.7V200.2V200.7C514.487 200.7 519.482 202.66 523.241 206.548L523.6 206.2ZM508.2 200.2V199.7H496V200.2V200.7H508.2V200.2ZM496 200.2V199.7C491.454 199.7 487.996 200.033 485.659 200.72L485.8 201.2L485.941 201.68C488.137 201.034 491.479 200.7 496 200.7V200.2ZM485.8 201.2L485.659 200.72C483.292 201.417 481.569 202.689 480.56 204.563L481 204.8L481.44 205.037C482.298 203.444 483.775 202.317 485.941 201.68L485.8 201.2ZM481 204.8L480.56 204.563C479.569 206.403 479.1 209.034 479.1 212.4H479.6H480.1C480.1 209.099 480.565 206.663 481.44 205.037L481 204.8ZM479.6 212.4H479.1V304H479.6H480.1V212.4H479.6ZM479.6 304H479.1C479.1 308.288 479.633 311.524 480.759 313.635L481.2 313.4L481.641 313.165C480.634 311.276 480.1 308.245 480.1 304H479.6ZM481.2 313.4L480.779 313.67C482.079 315.692 484.491 317.072 487.883 317.886L488 317.4L488.117 316.914C484.842 316.128 482.721 314.842 481.621 313.13L481.2 313.4ZM488 317.4L487.888 317.887C491.412 318.701 496.792 319.1 504 319.1V318.6V318.1C496.808 318.1 491.521 317.699 488.112 316.913L488 317.4ZM504 318.6V319.1C504.013 319.1 504.001 319.102 503.985 319.091C503.972 319.082 503.982 319.083 504.003 319.124C504.051 319.219 504.1 319.426 504.1 319.8H504.6H505.1C505.1 319.374 505.049 318.981 504.897 318.676C504.818 318.517 504.703 318.368 504.54 318.259C504.374 318.148 504.187 318.1 504 318.1V318.6ZM504.6 319.8H504.1C504.1 320.174 504.051 320.381 504.003 320.476C503.982 320.517 503.972 320.518 503.985 320.509C504.001 320.498 504.013 320.5 504 320.5V321V321.5C504.187 321.5 504.374 321.452 504.54 321.341C504.703 321.232 504.818 321.083 504.897 320.924C505.049 320.619 505.1 320.226 505.1 319.8H504.6ZM504 321V320.5C498.536 320.5 494.278 320.433 491.222 320.3L491.2 320.8L491.178 321.3C494.256 321.433 498.531 321.5 504 321.5V321ZM491.2 320.8L491.206 320.3L473.206 320.1L473.2 320.6L473.194 321.1L491.194 321.3L491.2 320.8ZM473.2 320.6L473.193 320.1L459.593 320.3L459.6 320.8L459.607 321.3L473.207 321.1L473.2 320.6ZM459.6 320.8L459.572 320.301C457.186 320.433 453.797 320.5 449.4 320.5V321V321.5C453.803 321.5 457.214 321.433 459.628 321.299L459.6 320.8ZM519.8 276.8H520.3C520.3 270.85 518.676 266.472 515.31 263.808L515 264.2L514.69 264.592C517.724 266.994 519.3 271.016 519.3 276.8H519.8ZM515 264.2L515.318 263.815C512.113 261.166 506.763 259.9 499.4 259.9V260.4V260.9C506.703 260.9 511.754 262.167 514.682 264.585L515 264.2ZM499.4 260.4V259.9H473.6V260.4V260.9H499.4V260.4ZM473.6 260.4H474.1V256.2H473.6H473.1V260.4H473.6ZM473.6 256.2V256.7H500V256.2V255.7H473.6V256.2ZM500 256.2V256.7C507.088 256.7 512.226 255.636 515.294 253.404L515 253L514.706 252.596C511.908 254.631 507.046 255.7 500 255.7V256.2ZM515 253L515.297 253.402C518.528 251.014 520.1 247.241 520.1 242.2H519.6H519.1C519.1 247.026 517.606 250.452 514.703 252.598L515 253ZM519.6 242.2H520.1C520.1 242.275 520.066 242.341 520.029 242.379C520.003 242.404 519.999 242.394 520.058 242.374C520.18 242.334 520.415 242.3 520.8 242.3V241.8V241.3C520.385 241.3 520.02 241.333 519.742 241.426C519.477 241.514 519.1 241.735 519.1 242.2H519.6ZM520.8 241.8V242.3C521.185 242.3 521.42 242.334 521.542 242.374C521.601 242.394 521.597 242.404 521.571 242.379C521.534 242.341 521.5 242.275 521.5 242.2H522H522.5C522.5 241.735 522.123 241.514 521.858 241.426C521.58 241.333 521.215 241.3 520.8 241.3V241.8ZM522 242.2L521.5 242.194L521.3 258.394L521.8 258.4L522.3 258.406L522.5 242.206L522 242.2ZM521.8 258.4H521.3C521.3 262.27 521.367 265.216 521.501 267.233L522 267.2L522.499 267.167C522.367 265.184 522.3 262.264 522.3 258.4H521.8ZM522 267.2L521.5 267.21L521.7 276.81L522.2 276.8L522.7 276.79L522.5 267.19L522 267.2ZM522.2 276.8H521.7C521.7 276.725 521.734 276.659 521.771 276.621C521.797 276.596 521.801 276.606 521.742 276.626C521.62 276.666 521.385 276.7 521 276.7V277.2V277.7C521.415 277.7 521.78 277.667 522.058 277.574C522.323 277.486 522.7 277.265 522.7 276.8H522.2ZM521 277.2V276.7C520.615 276.7 520.38 276.666 520.258 276.626C520.199 276.606 520.203 276.596 520.229 276.621C520.266 276.659 520.3 276.725 520.3 276.8H519.8H519.3C519.3 277.265 519.677 277.486 519.942 277.574C520.22 277.667 520.585 277.7 521 277.7V277.2ZM460.6 559.6L460.466 559.118L460.459 559.12L460.6 559.6ZM465.4 555.8L464.947 555.589C464.945 555.593 464.943 555.598 464.94 555.603L465.4 555.8ZM465.4 445.4L464.94 445.597C464.944 445.606 464.948 445.615 464.953 445.624L465.4 445.4ZM460.6 441.6L460.434 442.071C460.444 442.075 460.455 442.079 460.466 442.082L460.6 441.6ZM531.8 439.8H531.3L531.3 439.808L531.8 439.8ZM532.2 464.4H532.7L532.7 464.392L532.2 464.4ZM531 465.2V465.7C531.028 465.7 531.055 465.698 531.082 465.693L531 465.2ZM530 464.6H530.5C530.5 464.591 530.5 464.581 530.499 464.572L530 464.6ZM523.6 448.2L523.24 448.548L523.246 448.554L523.6 448.2ZM485.6 443.4L485.741 443.88C485.75 443.877 485.758 443.874 485.766 443.871L485.6 443.4ZM480.8 447L480.36 446.763C480.355 446.772 480.35 446.781 480.346 446.79L480.8 447ZM480.8 554.2L480.34 554.397C480.346 554.411 480.353 554.424 480.36 554.437L480.8 554.2ZM485.4 557.8L485.549 557.323V557.323L485.4 557.8ZM527.4 552L527.036 551.657V551.657L527.4 552ZM536 533.2L536.492 533.29C536.497 533.26 536.5 533.23 536.5 533.2H536ZM537.8 533.2L537.446 533.554C537.501 533.608 537.568 533.65 537.642 533.674L537.8 533.2ZM538.4 533.6L538.895 533.671C538.898 533.647 538.9 533.624 538.9 533.6H538.4ZM535.8 562.4L536.154 562.754H536.154L535.8 562.4ZM517.8 503.8L517.464 504.171L517.473 504.178L517.8 503.8ZM473.6 500H473.1C473.1 500.276 473.324 500.5 473.6 500.5V500ZM473.6 495.8V495.3C473.324 495.3 473.1 495.524 473.1 495.8H473.6ZM517.8 492.6L517.497 492.202L517.488 492.21L517.8 492.6ZM524.4 481.8L524.9 481.806V481.8H524.4ZM524.2 498L523.7 497.994V498H524.2ZM524.4 506.8L524.9 506.79C524.9 506.782 524.899 506.774 524.899 506.767L524.4 506.8ZM524.6 516.4H525.1L525.1 516.39L524.6 516.4ZM449.6 563V562.5C449.675 562.5 449.741 562.534 449.779 562.571C449.804 562.597 449.794 562.601 449.774 562.542C449.734 562.42 449.7 562.185 449.7 561.8H449.2H448.7C448.7 562.215 448.733 562.58 448.826 562.858C448.914 563.123 449.135 563.5 449.6 563.5V563ZM449.2 561.8H449.7C449.7 561.415 449.734 561.18 449.774 561.058C449.794 560.999 449.804 561.003 449.779 561.029C449.741 561.066 449.675 561.1 449.6 561.1V560.6V560.1C449.135 560.1 448.914 560.477 448.826 560.742C448.733 561.02 448.7 561.385 448.7 561.8H449.2ZM449.6 560.6V561.1C454.673 561.1 458.401 560.768 460.741 560.08L460.6 559.6L460.459 559.12C458.266 559.765 454.661 560.1 449.6 560.1V560.6ZM460.6 559.6L460.734 560.082C463.243 559.385 464.986 558.035 465.86 555.997L465.4 555.8L464.94 555.603C464.214 557.299 462.757 558.482 460.466 559.118L460.6 559.6ZM465.4 555.8L465.853 556.011C466.833 553.911 467.3 550.823 467.3 546.8H466.8H466.3C466.3 550.777 465.834 553.689 464.947 555.589L465.4 555.8ZM466.8 546.8H467.3V454.2H466.8H466.3V546.8H466.8ZM466.8 454.2H467.3C467.3 450.181 466.834 447.151 465.847 445.176L465.4 445.4L464.953 445.624C465.832 447.383 466.3 450.219 466.3 454.2H466.8ZM465.4 445.4L465.86 445.203C464.986 443.165 463.243 441.815 460.734 441.118L460.6 441.6L460.466 442.082C462.757 442.718 464.214 443.901 464.94 445.597L465.4 445.4ZM460.6 441.6L460.766 441.128C458.414 440.298 454.675 439.9 449.6 439.9V440.4V440.9C454.659 440.9 458.252 441.302 460.434 442.071L460.6 441.6ZM449.6 440.4V439.9C449.675 439.9 449.741 439.934 449.779 439.971C449.804 439.997 449.794 440.001 449.774 439.942C449.734 439.82 449.7 439.585 449.7 439.2H449.2H448.7C448.7 439.615 448.733 439.98 448.826 440.258C448.914 440.523 449.135 440.9 449.6 440.9V440.4ZM449.2 439.2H449.7C449.7 438.815 449.734 438.58 449.774 438.458C449.794 438.399 449.804 438.403 449.779 438.429C449.741 438.466 449.675 438.5 449.6 438.5V438V437.5C449.135 437.5 448.914 437.877 448.826 438.142C448.733 438.42 448.7 438.785 448.7 439.2H449.2ZM449.6 438V438.5H530V438V437.5H449.6V438ZM530 438V438.5C530.523 438.5 530.823 438.63 530.996 438.804C531.17 438.977 531.3 439.277 531.3 439.8H531.8H532.3C532.3 439.123 532.13 438.523 531.704 438.096C531.277 437.67 530.677 437.5 530 437.5V438ZM531.8 439.8L531.3 439.808L531.7 464.408L532.2 464.4L532.7 464.392L532.3 439.792L531.8 439.8ZM532.2 464.4H531.7C531.7 464.412 531.698 464.414 531.696 464.418C531.692 464.424 531.675 464.449 531.623 464.484C531.509 464.56 531.29 464.645 530.918 464.707L531 465.2L531.082 465.693C531.51 465.622 531.891 465.507 532.177 465.316C532.484 465.111 532.7 464.803 532.7 464.4H532.2ZM531 465.2V464.7C530.7 464.7 530.559 464.652 530.507 464.621C530.489 464.61 530.493 464.608 530.5 464.62C530.506 464.63 530.5 464.629 530.5 464.6H530H529.5C529.5 464.969 529.67 465.285 529.993 465.479C530.275 465.648 530.633 465.7 531 465.7V465.2ZM530 464.6L530.499 464.572C530.094 457.419 527.93 451.823 523.954 447.846L523.6 448.2L523.246 448.554C527.003 452.31 529.106 457.647 529.501 464.628L530 464.6ZM523.6 448.2L523.959 447.852C519.984 443.74 514.713 441.7 508.2 441.7V442.2V442.7C514.487 442.7 519.482 444.66 523.241 448.548L523.6 448.2ZM508.2 442.2V441.7H496V442.2V442.7H508.2V442.2ZM496 442.2V441.7C491.32 441.7 487.783 442.099 485.434 442.928L485.6 443.4L485.766 443.871C487.95 443.101 491.347 442.7 496 442.7V442.2ZM485.6 443.4L485.459 442.92C483.092 443.617 481.369 444.889 480.36 446.763L480.8 447L481.24 447.237C482.098 445.644 483.575 444.517 485.741 443.88L485.6 443.4ZM480.8 447L480.346 446.79C479.499 448.626 479.1 451.45 479.1 455.2H479.6H480.1C480.1 451.483 480.501 448.84 481.254 447.21L480.8 447ZM479.6 455.2H479.1V546H479.6H480.1V455.2H479.6ZM479.6 546H479.1C479.1 549.623 479.501 552.437 480.34 554.397L480.8 554.2L481.26 554.003C480.499 552.229 480.1 549.577 480.1 546H479.6ZM480.8 554.2L480.36 554.437C481.364 556.301 483.011 557.577 485.251 558.277L485.4 557.8L485.549 557.323C483.522 556.689 482.103 555.565 481.24 553.963L480.8 554.2ZM485.4 557.8L485.251 558.277C487.46 558.968 490.857 559.3 495.4 559.3V558.8V558.3C490.876 558.3 487.607 557.966 485.549 557.323L485.4 557.8ZM495.4 558.8V559.3H511.4V558.8V558.3H495.4V558.8ZM511.4 558.8V559.3C517.933 559.3 523.4 556.98 527.764 552.343L527.4 552L527.036 551.657C522.867 556.087 517.667 558.3 511.4 558.3V558.8ZM527.4 552L527.764 552.343C532.114 547.721 535.013 541.356 536.492 533.29L536 533.2L535.508 533.11C534.054 541.044 531.219 547.213 527.036 551.657L527.4 552ZM536 533.2H536.5C536.5 533.221 536.493 533.261 536.466 533.302C536.441 533.34 536.416 533.351 536.424 533.347C536.433 533.343 536.465 533.329 536.532 533.318C536.598 533.307 536.686 533.3 536.8 533.3V532.8V532.3C536.508 532.3 536.214 532.334 535.976 532.453C535.85 532.516 535.726 532.61 535.634 532.748C535.54 532.889 535.5 533.046 535.5 533.2H536ZM536.8 532.8V533.3C537.076 533.3 537.28 533.387 537.446 533.554L537.8 533.2L538.154 532.846C537.787 532.48 537.324 532.3 536.8 532.3V532.8ZM537.8 533.2L537.642 533.674C537.826 533.736 537.927 533.786 537.973 533.816C537.995 533.831 537.983 533.827 537.963 533.8C537.939 533.769 537.9 533.699 537.9 533.6H538.4H538.9C538.9 533.268 538.658 533.071 538.527 532.984C538.373 532.881 538.174 532.798 537.958 532.726L537.8 533.2ZM538.4 533.6L537.905 533.529C536.701 541.955 536.1 550.778 536.1 560H536.6H537.1C537.1 550.822 537.699 542.045 538.895 533.671L538.4 533.6ZM536.6 560H536.1C536.1 560.99 535.853 561.64 535.446 562.046L535.8 562.4L536.154 562.754C536.814 562.093 537.1 561.144 537.1 560H536.6ZM535.8 562.4L535.446 562.046C535.333 562.16 535.129 562.277 534.779 562.365C534.432 562.452 533.976 562.5 533.4 562.5V563V563.5C534.024 563.5 534.568 563.448 535.021 563.335C535.471 563.223 535.867 563.04 536.154 562.754L535.8 562.4ZM533.4 563V562.5H449.6V563V563.5H533.4V563ZM522.2 516.4H522.7C522.7 510.463 521.217 506.09 518.127 503.422L517.8 503.8L517.473 504.178C520.25 506.577 521.7 510.603 521.7 516.4H522.2ZM517.8 503.8L518.135 503.429C515.195 500.769 510.304 499.5 503.6 499.5V500V500.5C510.229 500.5 514.805 501.764 517.465 504.171L517.8 503.8ZM503.6 500V499.5H473.6V500V500.5H503.6V500ZM473.6 500H474.1V495.8H473.6H473.1V500H473.6ZM473.6 495.8V496.3H504.2V495.8V495.3H473.6V495.8ZM504.2 495.8V496.3C510.627 496.3 515.307 495.234 518.112 492.99L517.8 492.6L517.488 492.21C514.959 494.232 510.573 495.3 504.2 495.3V495.8ZM517.8 492.6L518.103 492.998C521.075 490.733 522.5 486.951 522.5 481.8H522H521.5C521.5 486.783 520.125 490.2 517.497 492.202L517.8 492.6ZM522 481.8H522.5C522.5 481.875 522.466 481.941 522.429 481.979C522.403 482.004 522.399 481.994 522.458 481.974C522.58 481.934 522.815 481.9 523.2 481.9V481.4V480.9C522.785 480.9 522.42 480.933 522.142 481.026C521.877 481.114 521.5 481.335 521.5 481.8H522ZM523.2 481.4V481.9C523.585 481.9 523.82 481.934 523.942 481.974C524.001 481.994 523.997 482.004 523.971 481.979C523.934 481.941 523.9 481.875 523.9 481.8H524.4H524.9C524.9 481.335 524.523 481.114 524.258 481.026C523.98 480.933 523.615 480.9 523.2 480.9V481.4ZM524.4 481.8L523.9 481.794L523.7 497.994L524.2 498L524.7 498.006L524.9 481.806L524.4 481.8ZM524.2 498H523.7C523.7 501.87 523.767 504.816 523.901 506.833L524.4 506.8L524.899 506.767C524.767 504.784 524.7 501.864 524.7 498H524.2ZM524.4 506.8L523.9 506.81L524.1 516.41L524.6 516.4L525.1 516.39L524.9 506.79L524.4 506.8ZM524.6 516.4H524.1C524.1 516.325 524.134 516.259 524.171 516.221C524.197 516.196 524.201 516.206 524.142 516.226C524.02 516.266 523.785 516.3 523.4 516.3V516.8V517.3C523.815 517.3 524.18 517.267 524.458 517.174C524.723 517.086 525.1 516.865 525.1 516.4H524.6ZM523.4 516.8V516.3C523.015 516.3 522.78 516.266 522.658 516.226C522.599 516.206 522.603 516.196 522.629 516.221C522.666 516.259 522.7 516.325 522.7 516.4H522.2H521.7C521.7 516.865 522.077 517.086 522.342 517.174C522.62 517.267 522.985 517.3 523.4 517.3V516.8ZM531.2 701.4L531.619 701.673L531.623 701.666L531.2 701.4ZM524.8 680L524.811 679.5H524.8V680ZM534.2 680.2L534.226 679.701C534.221 679.7 534.216 679.7 534.211 679.7L534.2 680.2ZM556.4 680.2L556.386 679.7C556.377 679.7 556.368 679.701 556.358 679.702L556.4 680.2ZM563.8 680V679.5L563.786 679.5L563.8 680ZM549.2 687.8L549.488 688.209L549.495 688.204L549.2 687.8ZM536 702.2L536.419 702.473L536.423 702.467L536 702.2ZM504.6 750.4L504.269 750.775C504.378 750.871 504.523 750.915 504.667 750.895C504.811 750.876 504.94 750.795 505.019 750.673L504.6 750.4ZM501.2 747.4L500.781 747.127C500.646 747.335 500.683 747.611 500.869 747.775L501.2 747.4ZM463 697.8L462.581 698.073L462.587 698.082L463 697.8ZM452.4 685.8L452.119 686.213V686.213L452.4 685.8ZM448 680.4L447.958 680.898C447.968 680.899 447.977 680.9 447.986 680.9L448 680.4ZM455 680.6L454.986 681.1C454.99 681.1 454.995 681.1 455 681.1V680.6ZM472.2 680.2L472.191 679.7L472.181 679.7L472.2 680.2ZM483 680V679.5L482.991 679.5L483 680ZM474.6 691.4L475.013 691.118C475.008 691.111 475.002 691.103 474.996 691.095L474.6 691.4ZM508.8 741.6L509.138 741.968C509.321 741.8 509.353 741.524 509.213 741.318L508.8 741.6ZM499 750.6L498.587 750.882C498.669 751.002 498.799 751.08 498.943 751.097C499.087 751.113 499.231 751.066 499.338 750.968L499 750.6ZM509.2 741.2H509.7C509.7 741.055 509.637 740.918 509.528 740.823C509.419 740.728 509.275 740.685 509.131 740.705L509.2 741.2ZM510.4 797.8L509.94 797.997V797.997L510.4 797.8ZM515 801.6L514.859 802.08L514.866 802.082L515 801.6ZM516.6 804.8L516.629 804.301C516.622 804.3 516.615 804.3 516.607 804.3L516.6 804.8ZM502.6 804.6L502.607 804.1C502.602 804.1 502.598 804.1 502.593 804.1L502.6 804.6ZM488.8 804.8L488.793 804.3C488.786 804.3 488.779 804.3 488.772 804.301L488.8 804.8ZM490 801.6L489.866 801.118L489.859 801.12L490 801.6ZM494.8 797.8L494.347 797.589C494.345 797.593 494.343 797.598 494.34 797.603L494.8 797.8ZM496.2 743L496.131 742.505C495.884 742.539 495.7 742.75 495.7 743H496.2ZM531.2 701.4L531.623 701.666C534.575 696.97 536.1 692.94 536.1 689.6H535.6H535.1C535.1 692.66 533.692 696.496 530.777 701.134L531.2 701.4ZM535.6 689.6H536.1C536.1 687.054 535.133 685.088 533.177 683.784C531.257 682.504 528.44 681.9 524.8 681.9V682.4V682.9C528.36 682.9 530.943 683.496 532.623 684.616C534.267 685.712 535.1 687.346 535.1 689.6H535.6ZM524.8 682.4V681.9C524.875 681.9 524.941 681.934 524.979 681.971C525.004 681.997 524.994 682.001 524.974 681.942C524.934 681.82 524.9 681.585 524.9 681.2H524.4H523.9C523.9 681.615 523.933 681.98 524.026 682.258C524.114 682.523 524.335 682.9 524.8 682.9V682.4ZM524.4 681.2H524.9C524.9 680.815 524.934 680.58 524.974 680.458C524.994 680.399 525.004 680.403 524.979 680.429C524.941 680.466 524.875 680.5 524.8 680.5V680V679.5C524.335 679.5 524.114 679.877 524.026 680.142C523.933 680.42 523.9 680.785 523.9 681.2H524.4ZM524.8 680L524.789 680.5L534.189 680.7L534.2 680.2L534.211 679.7L524.811 679.5L524.8 680ZM534.2 680.2L534.174 680.699C539.248 680.966 543.923 681.1 548.2 681.1V680.6V680.1C543.944 680.1 539.286 679.967 534.226 679.701L534.2 680.2ZM548.2 680.6V681.1C550.485 681.1 553.233 680.966 556.442 680.698L556.4 680.2L556.358 679.702C553.167 679.968 550.448 680.1 548.2 680.1V680.6ZM556.4 680.2L556.414 680.7L563.814 680.5L563.8 680L563.786 679.5L556.386 679.7L556.4 680.2ZM563.8 680V680.5C563.725 680.5 563.659 680.466 563.621 680.429C563.596 680.403 563.606 680.399 563.626 680.458C563.666 680.58 563.7 680.815 563.7 681.2H564.2H564.7C564.7 680.785 564.667 680.42 564.574 680.142C564.486 679.877 564.265 679.5 563.8 679.5V680ZM564.2 681.2H563.7C563.7 681.585 563.666 681.82 563.626 681.942C563.606 682.001 563.596 681.997 563.621 681.971C563.659 681.934 563.725 681.9 563.8 681.9V682.4V682.9C564.265 682.9 564.486 682.523 564.574 682.258C564.667 681.98 564.7 681.615 564.7 681.2H564.2ZM563.8 682.4V681.9C558.868 681.9 553.901 683.751 548.905 687.396L549.2 687.8L549.495 688.204C554.366 684.649 559.132 682.9 563.8 682.9V682.4ZM549.2 687.8L548.913 687.391C543.915 690.902 539.472 695.755 535.577 701.933L536 702.2L536.423 702.467C540.261 696.378 544.618 691.631 549.487 688.209L549.2 687.8ZM536 702.2L535.581 701.927L504.181 750.127L504.6 750.4L505.019 750.673L536.419 702.473L536 702.2ZM504.6 750.4L504.931 750.025L501.531 747.025L501.2 747.4L500.869 747.775L504.269 750.775L504.6 750.4ZM501.2 747.4L501.619 747.673L531.619 701.673L531.2 701.4L530.781 701.127L500.781 747.127L501.2 747.4ZM463 697.8L463.419 697.527C459.671 691.772 456.095 687.708 452.681 685.387L452.4 685.8L452.119 686.213C455.372 688.426 458.862 692.362 462.581 698.073L463 697.8ZM452.4 685.8L452.681 685.387C449.257 683.058 445.291 681.9 440.8 681.9V682.4V682.9C445.109 682.9 448.876 684.008 452.119 686.213L452.4 685.8ZM440.8 682.4V681.9C440.787 681.9 440.799 681.898 440.815 681.909C440.828 681.918 440.818 681.917 440.797 681.876C440.749 681.781 440.7 681.574 440.7 681.2H440.2H439.7C439.7 681.626 439.751 682.019 439.903 682.324C439.982 682.483 440.097 682.632 440.26 682.741C440.426 682.852 440.613 682.9 440.8 682.9V682.4ZM440.2 681.2H440.7C440.7 680.826 440.749 680.619 440.797 680.524C440.818 680.483 440.828 680.482 440.815 680.491C440.799 680.502 440.787 680.5 440.8 680.5V680V679.5C440.613 679.5 440.426 679.548 440.26 679.659C440.097 679.768 439.982 679.917 439.903 680.076C439.751 680.381 439.7 680.774 439.7 681.2H440.2ZM440.8 680V680.5C442.378 680.5 444.761 680.632 447.958 680.898L448 680.4L448.042 679.902C444.839 679.635 442.422 679.5 440.8 679.5V680ZM448 680.4L447.986 680.9L454.986 681.1L455 680.6L455.014 680.1L448.014 679.9L448 680.4ZM455 680.6V681.1C459.542 681.1 465.282 680.966 472.219 680.7L472.2 680.2L472.181 679.7C465.251 679.967 459.525 680.1 455 680.1V680.6ZM472.2 680.2L472.209 680.7L483.009 680.5L483 680L482.991 679.5L472.191 679.7L472.2 680.2ZM483 680V680.5C482.925 680.5 482.859 680.466 482.821 680.429C482.796 680.403 482.806 680.399 482.826 680.458C482.866 680.58 482.9 680.815 482.9 681.2H483.4H483.9C483.9 680.785 483.867 680.42 483.774 680.142C483.686 679.877 483.465 679.5 483 679.5V680ZM483.4 681.2H482.9C482.9 681.585 482.866 681.82 482.826 681.942C482.806 682.001 482.796 681.997 482.821 681.971C482.859 681.934 482.925 681.9 483 681.9V682.4V682.9C483.465 682.9 483.686 682.523 483.774 682.258C483.867 681.98 483.9 681.615 483.9 681.2H483.4ZM483 682.4V681.9C479.514 681.9 476.837 682.25 475.013 682.986C474.096 683.356 473.367 683.836 472.864 684.444C472.355 685.062 472.1 685.787 472.1 686.6H472.6H473.1C473.1 686.013 473.278 685.513 473.636 685.081C474 684.639 474.57 684.243 475.387 683.914C477.03 683.25 479.552 682.9 483 682.9V682.4ZM472.6 686.6H472.1C472.1 688.219 472.835 689.925 474.204 691.705L474.6 691.4L474.996 691.095C473.699 689.408 473.1 687.914 473.1 686.6H472.6ZM474.6 691.4L474.187 691.682L508.387 741.882L508.8 741.6L509.213 741.318L475.013 691.118L474.6 691.4ZM508.8 741.6L508.462 741.232L498.662 750.232L499 750.6L499.338 750.968L509.138 741.968L508.8 741.6ZM499 750.6L499.413 750.318L463.413 697.518L463 697.8L462.587 698.082L498.587 750.882L499 750.6ZM509.2 741.2H508.7V788.8H509.2H509.7V741.2H509.2ZM509.2 788.8H508.7C508.7 792.945 509.098 796.032 509.94 797.997L510.4 797.8L510.86 797.603C510.102 795.835 509.7 792.921 509.7 788.8H509.2ZM510.4 797.8L509.94 797.997C510.809 800.024 512.475 801.379 514.859 802.08L515 801.6L515.141 801.12C512.991 800.488 511.591 799.31 510.86 797.603L510.4 797.8ZM515 801.6L514.866 802.082C517.335 802.767 521.125 803.1 526.2 803.1V802.6V802.1C521.142 802.1 517.465 801.766 515.134 801.118L515 801.6ZM526.2 802.6V803.1C526.213 803.1 526.201 803.102 526.185 803.091C526.172 803.082 526.182 803.083 526.203 803.124C526.251 803.219 526.3 803.426 526.3 803.8H526.8H527.3C527.3 803.374 527.249 802.981 527.097 802.676C527.018 802.517 526.903 802.368 526.74 802.259C526.574 802.148 526.387 802.1 526.2 802.1V802.6ZM526.8 803.8H526.3C526.3 804.174 526.251 804.381 526.203 804.476C526.182 804.517 526.172 804.518 526.185 804.509C526.201 804.498 526.213 804.5 526.2 804.5V805V805.5C526.387 805.5 526.574 805.452 526.74 805.341C526.903 805.232 527.018 805.083 527.097 804.924C527.249 804.619 527.3 804.226 527.3 803.8H526.8ZM526.2 805V804.5C522.07 804.5 518.881 804.433 516.629 804.301L516.6 804.8L516.571 805.299C518.852 805.433 522.063 805.5 526.2 805.5V805ZM516.6 804.8L516.607 804.3L502.607 804.1L502.6 804.6L502.593 805.1L516.593 805.3L516.6 804.8ZM502.6 804.6L502.593 804.1L488.793 804.3L488.8 804.8L488.807 805.3L502.607 805.1L502.6 804.6ZM488.8 804.8L488.772 804.301C486.386 804.433 483.13 804.5 479 804.5V805V805.5C483.137 805.5 486.414 805.433 488.828 805.299L488.8 804.8ZM479 805V804.5C478.987 804.5 478.999 804.498 479.015 804.509C479.028 804.518 479.018 804.517 478.997 804.476C478.949 804.381 478.9 804.174 478.9 803.8H478.4H477.9C477.9 804.226 477.951 804.619 478.103 804.924C478.182 805.083 478.297 805.232 478.46 805.341C478.626 805.452 478.813 805.5 479 805.5V805ZM478.4 803.8H478.9C478.9 803.426 478.949 803.219 478.997 803.124C479.018 803.083 479.028 803.082 479.015 803.091C478.999 803.102 478.987 803.1 479 803.1V802.6V802.1C478.813 802.1 478.626 802.148 478.46 802.259C478.297 802.368 478.182 802.517 478.103 802.676C477.951 802.981 477.9 803.374 477.9 803.8H478.4ZM479 802.6V803.1C484.073 803.1 487.801 802.768 490.141 802.08L490 801.6L489.859 801.12C487.666 801.765 484.061 802.1 479 802.1V802.6ZM490 801.6L490.134 802.082C492.643 801.385 494.386 800.035 495.26 797.997L494.8 797.8L494.34 797.603C493.614 799.299 492.157 800.482 489.866 801.118L490 801.6ZM494.8 797.8L495.253 798.011C496.233 795.911 496.7 792.823 496.7 788.8H496.2H495.7C495.7 792.777 495.234 795.689 494.347 797.589L494.8 797.8ZM496.2 788.8H496.7V743H496.2H495.7V788.8H496.2ZM496.2 743L496.269 743.495L509.269 741.695L509.2 741.2L509.131 740.705L496.131 742.505L496.2 743Z" fill="black"/>
</svg>
