<svg width="1000" height="1000" viewBox="0 0 1000 1000" fill="none" xmlns="http://www.w3.org/2000/svg">
<rect width="1000" height="1000" fill="#F5F5F5"/>
<rect width="1000" height="1000" fill="#F6F5F2"/>
<path d="M357.88 544C357.693 544 357.6 543.72 357.6 543.16C357.6 542.6 357.693 542.32 357.88 542.32C361.427 542.32 364.04 542.087 365.72 541.62C367.4 541.153 368.52 540.267 369.08 538.96C369.733 537.56 370.06 535.46 370.06 532.66V467.84C370.06 465.04 369.733 462.987 369.08 461.68C368.52 460.373 367.4 459.487 365.72 459.02C364.133 458.46 361.567 458.18 358.02 458.18C357.833 458.18 357.74 457.9 357.74 457.34C357.74 456.78 357.833 456.5 358.02 456.5H414.3C415.14 456.5 415.56 456.92 415.56 457.76L415.84 474.98C415.84 475.26 415.56 475.447 415 475.54C414.533 475.54 414.3 475.4 414.3 475.12C414.02 470.173 412.527 466.347 409.82 463.64C407.113 460.84 403.52 459.44 399.04 459.44H390.5C387.327 459.44 384.947 459.673 383.36 460.14C381.773 460.607 380.653 461.447 380 462.66C379.347 463.873 379.02 465.647 379.02 467.98V532.1C379.02 535.087 379.393 537.28 380.14 538.68C380.98 539.987 382.567 540.92 384.9 541.48C387.327 542.04 391.06 542.32 396.1 542.32C396.38 542.32 396.52 542.6 396.52 543.16C396.52 543.72 396.38 544 396.1 544C392.273 544 389.287 543.953 387.14 543.86L374.54 543.72L365.02 543.86C363.34 543.953 360.96 544 357.88 544ZM407.16 513.06C407.16 508.953 406.04 506.013 403.8 504.24C401.653 502.467 398.013 501.58 392.88 501.58H374.82V498.64H393.3C398.247 498.64 401.747 497.893 403.8 496.4C405.947 494.813 407.02 492.293 407.02 488.84C407.02 488.653 407.3 488.56 407.86 488.56C408.42 488.56 408.7 488.653 408.7 488.84L408.56 500.18C408.56 502.887 408.607 504.94 408.7 506.34L408.84 513.06C408.84 513.247 408.56 513.34 408 513.34C407.44 513.34 407.16 513.247 407.16 513.06ZM443.25 544C443.064 544 442.97 543.72 442.97 543.16C442.97 542.6 443.064 542.32 443.25 542.32C446.797 542.32 449.364 542.087 450.95 541.62C452.63 541.153 453.75 540.267 454.31 538.96C454.964 537.56 455.29 535.46 455.29 532.66V467.84C455.29 465.04 454.964 462.987 454.31 461.68C453.75 460.373 452.63 459.487 450.95 459.02C449.364 458.46 446.797 458.18 443.25 458.18C443.064 458.18 442.97 457.9 442.97 457.34C442.97 456.78 443.064 456.5 443.25 456.5H499.53C500.37 456.5 500.79 456.92 500.79 457.76L501.07 474.98C501.07 475.26 500.79 475.447 500.23 475.54C499.764 475.54 499.53 475.4 499.53 475.12C499.25 470.173 497.757 466.347 495.05 463.64C492.344 460.84 488.75 459.44 484.27 459.44H475.73C472.464 459.44 470.037 459.72 468.45 460.28C466.864 460.747 465.744 461.587 465.09 462.8C464.53 464.013 464.25 465.927 464.25 468.54V532.1C464.25 534.62 464.53 536.533 465.09 537.84C465.744 539.053 466.817 539.893 468.31 540.36C469.804 540.827 472.137 541.06 475.31 541.06H486.51C490.99 541.06 494.724 539.473 497.71 536.3C500.697 533.127 502.704 528.74 503.73 523.14C503.73 522.953 503.917 522.86 504.29 522.86C504.57 522.86 504.804 522.953 504.99 523.14C505.27 523.233 505.41 523.327 505.41 523.42C504.57 529.3 504.15 535.46 504.15 541.9C504.15 542.647 503.964 543.207 503.59 543.58C503.31 543.86 502.75 544 501.91 544H443.25ZM494.07 511.38C494.07 507.273 493.044 504.333 490.99 502.56C489.03 500.787 485.717 499.9 481.05 499.9H460.05V496.96H481.47C485.95 496.96 489.124 496.213 490.99 494.72C492.95 493.227 493.93 490.707 493.93 487.16C493.93 486.973 494.21 486.88 494.77 486.88C495.33 486.88 495.61 486.973 495.61 487.16L495.47 498.5C495.47 501.207 495.517 503.26 495.61 504.66L495.75 511.38C495.75 511.567 495.47 511.66 494.91 511.66C494.35 511.66 494.07 511.567 494.07 511.38ZM589.566 471.48C591.619 468.213 592.646 465.46 592.646 463.22C592.646 459.86 590.126 458.18 585.086 458.18C584.899 458.18 584.806 457.9 584.806 457.34C584.806 456.78 584.899 456.5 585.086 456.5L591.666 456.64C595.212 456.827 598.479 456.92 601.466 456.92C603.052 456.92 604.966 456.827 607.206 456.64L612.386 456.5C612.572 456.5 612.666 456.78 612.666 457.34C612.666 457.9 612.572 458.18 612.386 458.18C609.026 458.18 605.619 459.44 602.166 461.96C598.712 464.387 595.632 467.747 592.926 472.04L570.946 505.78L568.566 503.68L589.566 471.48ZM541.826 468.96C539.212 464.947 536.739 462.147 534.406 460.56C532.072 458.973 529.366 458.18 526.286 458.18C526.006 458.18 525.866 457.9 525.866 457.34C525.866 456.78 526.006 456.5 526.286 456.5C527.406 456.5 529.086 456.593 531.326 456.78L536.226 456.92C539.399 456.92 543.412 456.827 548.266 456.64L555.826 456.5C556.012 456.5 556.106 456.78 556.106 457.34C556.106 457.9 556.012 458.18 555.826 458.18C550.972 458.18 548.546 459.16 548.546 461.12C548.546 462.147 549.012 463.267 549.946 464.48L573.886 499.62L567.026 505.92L541.826 468.96ZM574.166 499.34V532.66C574.166 535.553 574.446 537.653 575.006 538.96C575.566 540.267 576.639 541.153 578.226 541.62C579.906 542.087 582.519 542.32 586.066 542.32C586.346 542.32 586.486 542.6 586.486 543.16C586.486 543.72 586.346 544 586.066 544C583.172 544 580.932 543.953 579.346 543.86L569.546 543.72L559.886 543.86C558.206 543.953 555.919 544 553.026 544C552.746 544 552.606 543.72 552.606 543.16C552.606 542.6 552.746 542.32 553.026 542.32C556.572 542.32 559.139 542.087 560.726 541.62C562.406 541.153 563.526 540.267 564.086 538.96C564.739 537.56 565.066 535.46 565.066 532.66V500.6L574.166 499.34Z" fill="#111111"/>
<path d="M369.08 538.96L368.627 538.749C368.625 538.753 368.623 538.758 368.62 538.763L369.08 538.96ZM369.08 461.68L368.62 461.877C368.624 461.886 368.628 461.895 368.633 461.904L369.08 461.68ZM365.72 459.02L365.554 459.491C365.564 459.495 365.575 459.499 365.586 459.502L365.72 459.02ZM415.56 457.76H415.06L415.06 457.768L415.56 457.76ZM415.84 474.98H416.34L416.34 474.972L415.84 474.98ZM415 475.54V476.04C415.028 476.04 415.055 476.038 415.082 476.033L415 475.54ZM414.3 475.12H414.8C414.8 475.111 414.8 475.101 414.799 475.092L414.3 475.12ZM409.82 463.64L409.46 463.988L409.466 463.994L409.82 463.64ZM383.36 460.14L383.219 459.66V459.66L383.36 460.14ZM380 462.66L379.56 462.423V462.423L380 462.66ZM380.14 538.68L379.699 538.915C379.705 538.927 379.712 538.939 379.719 538.95L380.14 538.68ZM384.9 541.48L384.783 541.966L384.788 541.967L384.9 541.48ZM387.14 543.86L387.162 543.36C387.156 543.36 387.151 543.36 387.146 543.36L387.14 543.86ZM374.54 543.72L374.546 543.22L374.533 543.22L374.54 543.72ZM365.02 543.86L365.013 543.36C365.006 543.36 364.999 543.36 364.992 543.361L365.02 543.86ZM403.8 504.24L403.481 504.626L403.49 504.632L403.8 504.24ZM374.82 501.58H374.32C374.32 501.856 374.544 502.08 374.82 502.08V501.58ZM374.82 498.64V498.14C374.544 498.14 374.32 498.364 374.32 498.64H374.82ZM403.8 496.4L404.094 496.804L404.097 496.802L403.8 496.4ZM408.7 488.84L409.2 488.846V488.84H408.7ZM408.56 500.18L408.06 500.174V500.18H408.56ZM408.7 506.34L409.2 506.33C409.2 506.322 409.199 506.314 409.199 506.307L408.7 506.34ZM408.84 513.06H409.34L409.34 513.05L408.84 513.06ZM357.88 544V543.5C357.975 543.5 358.059 543.541 358.111 543.594C358.151 543.634 358.154 543.661 358.144 543.632C358.124 543.57 358.1 543.425 358.1 543.16H357.6H357.1C357.1 543.455 357.123 543.73 357.196 543.948C357.264 544.153 357.455 544.5 357.88 544.5V544ZM357.6 543.16H358.1C358.1 542.895 358.124 542.75 358.144 542.688C358.154 542.659 358.151 542.686 358.111 542.726C358.059 542.779 357.975 542.82 357.88 542.82V542.32V541.82C357.455 541.82 357.264 542.167 357.196 542.372C357.123 542.59 357.1 542.865 357.1 543.16H357.6ZM357.88 542.32V542.82C361.435 542.82 364.105 542.587 365.854 542.102L365.72 541.62L365.586 541.138C363.975 541.586 361.418 541.82 357.88 541.82V542.32ZM365.72 541.62L365.854 542.102C367.643 541.605 368.906 540.635 369.54 539.157L369.08 538.96L368.62 538.763C368.134 539.899 367.157 540.702 365.586 541.138L365.72 541.62ZM369.08 538.96L369.533 539.171C370.233 537.671 370.56 535.483 370.56 532.66H370.06H369.56C369.56 535.437 369.234 537.449 368.627 538.749L369.08 538.96ZM370.06 532.66H370.56V467.84H370.06H369.56V532.66H370.06ZM370.06 467.84H370.56C370.56 465.021 370.234 462.871 369.527 461.456L369.08 461.68L368.633 461.904C369.232 463.103 369.56 465.059 369.56 467.84H370.06ZM369.08 461.68L369.54 461.483C368.906 460.005 367.643 459.035 365.854 458.538L365.72 459.02L365.586 459.502C367.157 459.938 368.134 460.741 368.62 461.877L369.08 461.68ZM365.72 459.02L365.886 458.549C364.214 457.958 361.575 457.68 358.02 457.68V458.18V458.68C361.559 458.68 364.052 458.962 365.554 459.491L365.72 459.02ZM358.02 458.18V457.68C358.115 457.68 358.199 457.721 358.251 457.774C358.291 457.814 358.294 457.841 358.284 457.812C358.264 457.75 358.24 457.605 358.24 457.34H357.74H357.24C357.24 457.635 357.263 457.91 357.336 458.128C357.404 458.333 357.595 458.68 358.02 458.68V458.18ZM357.74 457.34H358.24C358.24 457.075 358.264 456.93 358.284 456.868C358.294 456.839 358.291 456.866 358.251 456.906C358.199 456.959 358.115 457 358.02 457V456.5V456C357.595 456 357.404 456.347 357.336 456.552C357.263 456.77 357.24 457.045 357.24 457.34H357.74ZM358.02 456.5V457H414.3V456.5V456H358.02V456.5ZM414.3 456.5V457C414.643 457 414.808 457.085 414.891 457.169C414.975 457.252 415.06 457.417 415.06 457.76H415.56H416.06C416.06 457.263 415.935 456.798 415.599 456.461C415.262 456.125 414.797 456 414.3 456V456.5ZM415.56 457.76L415.06 457.768L415.34 474.988L415.84 474.98L416.34 474.972L416.06 457.752L415.56 457.76ZM415.84 474.98H415.34C415.34 474.962 415.346 474.937 415.359 474.915C415.37 474.897 415.375 474.899 415.353 474.914C415.299 474.95 415.17 475.005 414.918 475.047L415 475.54L415.082 476.033C415.39 475.982 415.681 475.897 415.907 475.746C416.154 475.581 416.34 475.323 416.34 474.98H415.84ZM415 475.54V475.04C414.907 475.04 414.839 475.033 414.792 475.023C414.744 475.014 414.729 475.004 414.732 475.006C414.739 475.01 414.762 475.027 414.781 475.061C414.789 475.076 414.795 475.091 414.797 475.103C414.8 475.114 414.8 475.12 414.8 475.12H414.3H413.8C413.8 475.429 413.945 475.7 414.218 475.864C414.45 476.003 414.733 476.04 415 476.04V475.54ZM414.3 475.12L414.799 475.092C414.514 470.059 412.99 466.103 410.174 463.286L409.82 463.64L409.466 463.994C412.063 466.59 413.526 470.287 413.801 475.148L414.3 475.12ZM409.82 463.64L410.179 463.292C407.364 460.38 403.633 458.94 399.04 458.94V459.44V459.94C403.407 459.94 406.862 461.3 409.461 463.988L409.82 463.64ZM399.04 459.44V458.94H390.5V459.44V459.94H399.04V459.44ZM390.5 459.44V458.94C387.314 458.94 384.876 459.173 383.219 459.66L383.36 460.14L383.501 460.62C385.017 460.174 387.339 459.94 390.5 459.94V459.44ZM383.36 460.14L383.219 459.66C381.532 460.157 380.289 461.069 379.56 462.423L380 462.66L380.44 462.897C381.018 461.824 382.015 461.057 383.501 460.62L383.36 460.14ZM380 462.66L379.56 462.423C378.849 463.743 378.52 465.614 378.52 467.98H379.02H379.52C379.52 465.679 379.845 464.003 380.44 462.897L380 462.66ZM379.02 467.98H378.52V532.1H379.02H379.52V467.98H379.02ZM379.02 532.1H378.52C378.52 535.108 378.893 537.404 379.699 538.915L380.14 538.68L380.581 538.445C379.894 537.156 379.52 535.065 379.52 532.1H379.02ZM380.14 538.68L379.719 538.95C380.659 540.412 382.391 541.392 384.783 541.966L384.9 541.48L385.017 540.994C382.742 540.448 381.301 539.562 380.561 538.41L380.14 538.68ZM384.9 541.48L384.788 541.967C387.272 542.541 391.052 542.82 396.1 542.82V542.32V541.82C391.068 541.82 387.381 541.539 385.012 540.993L384.9 541.48ZM396.1 542.32V542.82C396.083 542.82 396.045 542.814 396.006 542.789C395.971 542.765 395.962 542.743 395.968 542.754C395.974 542.766 395.989 542.802 396.001 542.875C396.012 542.946 396.02 543.039 396.02 543.16H396.52H397.02C397.02 542.854 396.984 542.551 396.862 542.306C396.798 542.177 396.701 542.05 396.561 541.956C396.418 541.861 396.257 541.82 396.1 541.82V542.32ZM396.52 543.16H396.02C396.02 543.281 396.012 543.374 396.001 543.445C395.989 543.518 395.974 543.554 395.968 543.566C395.962 543.577 395.971 543.555 396.006 543.531C396.045 543.506 396.083 543.5 396.1 543.5V544V544.5C396.257 544.5 396.418 544.459 396.561 544.364C396.701 544.27 396.798 544.143 396.862 544.014C396.984 543.769 397.02 543.466 397.02 543.16H396.52ZM396.1 544V543.5C392.276 543.5 389.298 543.453 387.162 543.36L387.14 543.86L387.118 544.36C389.276 544.453 392.271 544.5 396.1 544.5V544ZM387.14 543.86L387.146 543.36L374.546 543.22L374.54 543.72L374.534 544.22L387.134 544.36L387.14 543.86ZM374.54 543.72L374.533 543.22L365.013 543.36L365.02 543.86L365.027 544.36L374.547 544.22L374.54 543.72ZM365.02 543.86L364.992 543.361C363.326 543.453 360.957 543.5 357.88 543.5V544V544.5C360.963 544.5 363.354 544.453 365.048 544.359L365.02 543.86ZM407.16 513.06H407.66C407.66 508.87 406.516 505.752 404.11 503.848L403.8 504.24L403.49 504.632C405.564 506.274 406.66 509.036 406.66 513.06H407.16ZM403.8 504.24L404.118 503.855C401.833 501.966 398.043 501.08 392.88 501.08V501.58V502.08C397.983 502.08 401.474 502.967 403.482 504.625L403.8 504.24ZM392.88 501.58V501.08H374.82V501.58V502.08H392.88V501.58ZM374.82 501.58H375.32V498.64H374.82H374.32V501.58H374.82ZM374.82 498.64V499.14H393.3V498.64V498.14H374.82V498.64ZM393.3 498.64V499.14C398.268 499.14 401.906 498.396 404.094 496.804L403.8 496.4L403.506 495.996C401.588 497.391 398.226 498.14 393.3 498.14V498.64ZM403.8 496.4L404.097 496.802C406.408 495.094 407.52 492.401 407.52 488.84H407.02H406.52C406.52 492.186 405.486 494.532 403.503 495.998L403.8 496.4ZM407.02 488.84H407.52C407.52 488.935 407.479 489.019 407.426 489.071C407.386 489.111 407.359 489.114 407.388 489.104C407.45 489.084 407.595 489.06 407.86 489.06V488.56V488.06C407.565 488.06 407.29 488.083 407.072 488.156C406.867 488.224 406.52 488.415 406.52 488.84H407.02ZM407.86 488.56V489.06C408.125 489.06 408.27 489.084 408.332 489.104C408.361 489.114 408.334 489.111 408.294 489.071C408.241 489.019 408.2 488.935 408.2 488.84H408.7H409.2C409.2 488.415 408.853 488.224 408.648 488.156C408.43 488.083 408.155 488.06 407.86 488.06V488.56ZM408.7 488.84L408.2 488.834L408.06 500.174L408.56 500.18L409.06 500.186L409.2 488.846L408.7 488.84ZM408.56 500.18H408.06C408.06 502.89 408.107 504.956 408.201 506.373L408.7 506.34L409.199 506.307C409.107 504.924 409.06 502.884 409.06 500.18H408.56ZM408.7 506.34L408.2 506.35L408.34 513.07L408.84 513.06L409.34 513.05L409.2 506.33L408.7 506.34ZM408.84 513.06H408.34C408.34 512.965 408.381 512.881 408.434 512.829C408.474 512.789 408.501 512.786 408.472 512.796C408.41 512.816 408.265 512.84 408 512.84V513.34V513.84C408.295 513.84 408.57 513.817 408.788 513.744C408.993 513.676 409.34 513.485 409.34 513.06H408.84ZM408 513.34V512.84C407.735 512.84 407.59 512.816 407.528 512.796C407.499 512.786 407.526 512.789 407.566 512.829C407.619 512.881 407.66 512.965 407.66 513.06H407.16H406.66C406.66 513.485 407.007 513.676 407.212 513.744C407.43 513.817 407.705 513.84 408 513.84V513.34ZM450.95 541.62L450.817 541.138L450.809 541.14L450.95 541.62ZM454.31 538.96L453.857 538.749C453.855 538.753 453.853 538.758 453.851 538.763L454.31 538.96ZM454.31 461.68L453.851 461.877C453.855 461.886 453.859 461.895 453.863 461.904L454.31 461.68ZM450.95 459.02L450.784 459.491C450.795 459.495 450.806 459.499 450.817 459.502L450.95 459.02ZM500.79 457.76H500.29L500.291 457.768L500.79 457.76ZM501.07 474.98H501.571L501.57 474.972L501.07 474.98ZM500.23 475.54V476.04C500.258 476.04 500.286 476.038 500.313 476.033L500.23 475.54ZM499.53 475.12H500.03C500.03 475.111 500.03 475.101 500.03 475.092L499.53 475.12ZM495.05 463.64L494.691 463.988L494.697 463.994L495.05 463.64ZM468.45 460.28L468.592 460.76C468.6 460.757 468.609 460.754 468.617 460.751L468.45 460.28ZM465.09 462.8L464.65 462.563C464.645 462.572 464.641 462.581 464.636 462.59L465.09 462.8ZM465.09 537.84L464.631 538.037C464.637 538.051 464.643 538.064 464.65 538.077L465.09 537.84ZM468.31 540.36L468.46 539.883V539.883L468.31 540.36ZM497.71 536.3L497.346 535.957V535.957L497.71 536.3ZM503.73 523.14L504.222 523.23C504.228 523.2 504.23 523.17 504.23 523.14H503.73ZM504.99 523.14L504.637 523.494C504.692 523.548 504.759 523.59 504.832 523.614L504.99 523.14ZM505.41 523.42L505.905 523.491C505.909 523.467 505.91 523.444 505.91 523.42H505.41ZM503.59 543.58L503.944 543.934V543.934L503.59 543.58ZM490.99 502.56L490.655 502.931L490.664 502.938L490.99 502.56ZM460.05 499.9H459.55C459.55 500.176 459.774 500.4 460.05 500.4V499.9ZM460.05 496.96V496.46C459.774 496.46 459.55 496.684 459.55 496.96H460.05ZM490.99 494.72L490.687 494.322L490.678 494.33L490.99 494.72ZM495.61 487.16L496.11 487.166V487.16H495.61ZM495.47 498.5L494.97 498.494V498.5H495.47ZM495.61 504.66L496.11 504.65C496.11 504.642 496.11 504.634 496.109 504.627L495.61 504.66ZM495.75 511.38H496.251L496.25 511.37L495.75 511.38ZM443.25 544V543.5C443.345 543.5 443.429 543.541 443.482 543.594C443.522 543.634 443.525 543.661 443.515 543.632C443.494 543.57 443.47 543.425 443.47 543.16H442.97H442.47C442.47 543.455 442.493 543.73 442.566 543.948C442.635 544.153 442.825 544.5 443.25 544.5V544ZM442.97 543.16H443.47C443.47 542.895 443.494 542.75 443.515 542.688C443.525 542.659 443.522 542.686 443.482 542.726C443.429 542.779 443.345 542.82 443.25 542.82V542.32V541.82C442.825 541.82 442.635 542.167 442.566 542.372C442.493 542.59 442.47 542.865 442.47 543.16H442.97ZM443.25 542.32V542.82C446.803 542.82 449.431 542.588 451.092 542.1L450.95 541.62L450.809 541.14C449.296 541.585 446.791 541.82 443.25 541.82V542.32ZM450.95 541.62L451.084 542.102C452.874 541.605 454.137 540.635 454.77 539.157L454.31 538.96L453.851 538.763C453.364 539.899 452.387 540.702 450.817 541.138L450.95 541.62ZM454.31 538.96L454.764 539.171C455.464 537.671 455.79 535.483 455.79 532.66H455.29H454.79C454.79 535.437 454.464 537.449 453.857 538.749L454.31 538.96ZM455.29 532.66H455.79V467.84H455.29H454.79V532.66H455.29ZM455.29 467.84H455.79C455.79 465.021 455.465 462.871 454.758 461.456L454.31 461.68L453.863 461.904C454.463 463.103 454.79 465.059 454.79 467.84H455.29ZM454.31 461.68L454.77 461.483C454.137 460.005 452.874 459.035 451.084 458.538L450.95 459.02L450.817 459.502C452.387 459.938 453.364 460.741 453.851 461.877L454.31 461.68ZM450.95 459.02L451.117 458.549C449.445 457.958 446.805 457.68 443.25 457.68V458.18V458.68C446.789 458.68 449.283 458.962 450.784 459.491L450.95 459.02ZM443.25 458.18V457.68C443.345 457.68 443.429 457.721 443.482 457.774C443.522 457.814 443.525 457.841 443.515 457.812C443.494 457.75 443.47 457.605 443.47 457.34H442.97H442.47C442.47 457.635 442.493 457.91 442.566 458.128C442.635 458.333 442.825 458.68 443.25 458.68V458.18ZM442.97 457.34H443.47C443.47 457.075 443.494 456.93 443.515 456.868C443.525 456.839 443.522 456.866 443.482 456.906C443.429 456.959 443.345 457 443.25 457V456.5V456C442.825 456 442.635 456.347 442.566 456.552C442.493 456.77 442.47 457.045 442.47 457.34H442.97ZM443.25 456.5V457H499.53V456.5V456H443.25V456.5ZM499.53 456.5V457C499.873 457 500.039 457.085 500.122 457.169C500.205 457.252 500.29 457.417 500.29 457.76H500.79H501.29C501.29 457.263 501.166 456.798 500.829 456.461C500.492 456.125 500.028 456 499.53 456V456.5ZM500.79 457.76L500.291 457.768L500.571 474.988L501.07 474.98L501.57 474.972L501.29 457.752L500.79 457.76ZM501.07 474.98H500.57C500.57 474.962 500.576 474.937 500.589 474.915C500.6 474.897 500.606 474.899 500.583 474.914C500.529 474.95 500.4 475.005 500.148 475.047L500.23 475.54L500.313 476.033C500.621 475.982 500.912 475.897 501.138 475.746C501.385 475.581 501.57 475.323 501.57 474.98H501.07ZM500.23 475.54V475.04C500.137 475.04 500.069 475.033 500.022 475.023C499.974 475.014 499.959 475.004 499.963 475.006C499.969 475.01 499.992 475.027 500.011 475.061C500.02 475.076 500.025 475.091 500.028 475.103C500.03 475.114 500.03 475.12 500.03 475.12H499.53H499.03C499.03 475.429 499.176 475.7 499.448 475.864C499.68 476.003 499.963 476.04 500.23 476.04V475.54ZM499.53 475.12L500.03 475.092C499.745 470.059 498.221 466.103 495.404 463.286L495.05 463.64L494.697 463.994C497.294 466.59 498.756 470.287 499.031 475.148L499.53 475.12ZM495.05 463.64L495.41 463.292C492.595 460.38 488.864 458.94 484.27 458.94V459.44V459.94C488.637 459.94 492.093 461.3 494.691 463.988L495.05 463.64ZM484.27 459.44V458.94H475.73V459.44V459.94H484.27V459.44ZM475.73 459.44V458.94C472.45 458.94 469.954 459.219 468.284 459.808L468.45 460.28L468.617 460.751C470.121 460.221 472.478 459.94 475.73 459.94V459.44ZM468.45 460.28L468.309 459.8C466.622 460.297 465.379 461.209 464.65 462.563L465.09 462.8L465.531 463.037C466.108 461.964 467.106 461.197 468.592 460.76L468.45 460.28ZM465.09 462.8L464.636 462.59C464.029 463.906 463.75 465.91 463.75 468.54H464.25H464.75C464.75 465.943 465.032 464.12 465.544 463.01L465.09 462.8ZM464.25 468.54H463.75V532.1H464.25H464.75V468.54H464.25ZM464.25 532.1H463.75C463.75 534.643 464.031 536.637 464.631 538.037L465.09 537.84L465.55 537.643C465.03 536.429 464.75 534.597 464.75 532.1H464.25ZM465.09 537.84L464.65 538.077C465.374 539.421 466.562 540.337 468.161 540.837L468.31 540.36L468.46 539.883C467.073 539.449 466.114 538.685 465.531 537.603L465.09 537.84ZM468.31 540.36L468.161 540.837C469.731 541.328 472.127 541.56 475.31 541.56V541.06V540.56C472.147 540.56 469.877 540.326 468.46 539.883L468.31 540.36ZM475.31 541.06V541.56H486.51V541.06V540.56H475.31V541.06ZM486.51 541.06V541.56C491.124 541.56 494.99 539.92 498.075 536.643L497.71 536.3L497.346 535.957C494.457 539.027 490.857 540.56 486.51 540.56V541.06ZM497.71 536.3L498.075 536.643C501.145 533.381 503.183 528.896 504.222 523.23L503.73 523.14L503.239 523.05C502.224 528.584 500.25 532.873 497.346 535.957L497.71 536.3ZM503.73 523.14H504.23C504.23 523.181 504.219 523.239 504.181 523.295C504.146 523.348 504.107 523.371 504.094 523.377C504.083 523.383 504.09 523.377 504.128 523.371C504.164 523.365 504.217 523.36 504.29 523.36V522.86V522.36C504.078 522.36 503.845 522.384 503.647 522.483C503.541 522.536 503.431 522.617 503.349 522.74C503.265 522.866 503.23 523.006 503.23 523.14H503.73ZM504.29 522.86V523.36C504.447 523.36 504.55 523.407 504.637 523.494L504.99 523.14L505.344 522.786C505.057 522.5 504.694 522.36 504.29 522.36V522.86ZM504.99 523.14L504.832 523.614C504.891 523.634 504.937 523.652 504.971 523.667C505.006 523.683 505.023 523.693 505.028 523.696C505.035 523.701 505.012 523.687 504.984 523.65C504.953 523.609 504.91 523.529 504.91 523.42H505.41H505.91C505.91 523.108 505.683 522.931 505.583 522.864C505.458 522.781 505.304 522.718 505.149 522.666L504.99 523.14ZM505.41 523.42L504.915 523.349C504.072 529.255 503.65 535.438 503.65 541.9H504.15H504.65C504.65 535.482 505.069 529.345 505.905 523.491L505.41 523.42ZM504.15 541.9H503.65C503.65 542.57 503.483 542.98 503.237 543.226L503.59 543.58L503.944 543.934C504.444 543.433 504.65 542.724 504.65 541.9H504.15ZM503.59 543.58L503.237 543.226C503.184 543.28 503.069 543.352 502.839 543.41C502.612 543.467 502.306 543.5 501.91 543.5V544V544.5C502.355 544.5 502.749 544.463 503.082 544.38C503.412 544.298 503.717 544.16 503.944 543.934L503.59 543.58ZM501.91 544V543.5H443.25V544V544.5H501.91V544ZM494.07 511.38H494.57C494.57 507.203 493.527 504.09 491.317 502.182L490.99 502.56L490.664 502.938C492.561 504.577 493.57 507.343 493.57 511.38H494.07ZM490.99 502.56L491.326 502.189C489.226 500.289 485.755 499.4 481.05 499.4V499.9V500.4C485.679 500.4 488.835 501.284 490.655 502.931L490.99 502.56ZM481.05 499.9V499.4H460.05V499.9V500.4H481.05V499.9ZM460.05 499.9H460.55V496.96H460.05H459.55V499.9H460.05ZM460.05 496.96V497.46H481.47V496.96V496.46H460.05V496.96ZM481.47 496.96V497.46C485.978 497.46 489.298 496.714 491.303 495.11L490.99 494.72L490.678 494.33C488.95 495.712 485.923 496.46 481.47 496.46V496.96ZM490.99 494.72L491.293 495.118C493.425 493.493 494.43 490.791 494.43 487.16H493.93H493.43C493.43 490.623 492.475 492.96 490.687 494.322L490.99 494.72ZM493.93 487.16H494.43C494.43 487.255 494.389 487.339 494.337 487.391C494.296 487.431 494.269 487.434 494.299 487.424C494.36 487.404 494.505 487.38 494.77 487.38V486.88V486.38C494.476 486.38 494.201 486.403 493.982 486.476C493.777 486.544 493.43 486.735 493.43 487.16H493.93ZM494.77 486.88V487.38C495.036 487.38 495.181 487.404 495.242 487.424C495.272 487.434 495.245 487.431 495.204 487.391C495.152 487.339 495.11 487.255 495.11 487.16H495.61H496.11C496.11 486.735 495.764 486.544 495.559 486.476C495.34 486.403 495.065 486.38 494.77 486.38V486.88ZM495.61 487.16L495.111 487.154L494.971 498.494L495.47 498.5L495.97 498.506L496.11 487.166L495.61 487.16ZM495.47 498.5H494.97C494.97 501.21 495.017 503.276 495.112 504.693L495.61 504.66L496.109 504.627C496.017 503.244 495.97 501.204 495.97 498.5H495.47ZM495.61 504.66L495.111 504.67L495.251 511.39L495.75 511.38L496.25 511.37L496.11 504.65L495.61 504.66ZM495.75 511.38H495.25C495.25 511.285 495.292 511.201 495.344 511.149C495.385 511.109 495.412 511.106 495.382 511.116C495.321 511.136 495.176 511.16 494.91 511.16V511.66V512.16C495.205 512.16 495.48 512.137 495.699 512.064C495.904 511.996 496.25 511.805 496.25 511.38H495.75ZM494.91 511.66V511.16C494.645 511.16 494.5 511.136 494.439 511.116C494.409 511.106 494.436 511.109 494.477 511.149C494.529 511.201 494.57 511.285 494.57 511.38H494.07H493.57C493.57 511.805 493.917 511.996 494.122 512.064C494.341 512.137 494.616 512.16 494.91 512.16V511.66ZM589.566 471.48L589.985 471.753L589.989 471.746L589.566 471.48ZM585.086 456.5L585.096 456H585.086V456.5ZM591.666 456.64L591.692 456.141C591.687 456.14 591.682 456.14 591.676 456.14L591.666 456.64ZM607.206 456.64L607.192 456.14C607.183 456.14 607.174 456.141 607.164 456.142L607.206 456.64ZM612.386 456.5V456L612.372 456L612.386 456.5ZM602.166 461.96L602.453 462.369L602.461 462.364L602.166 461.96ZM592.926 472.04L593.345 472.313L593.349 472.307L592.926 472.04ZM570.946 505.78L570.615 506.155C570.724 506.251 570.869 506.295 571.013 506.275C571.157 506.256 571.285 506.175 571.365 506.053L570.946 505.78ZM568.566 503.68L568.147 503.407C568.011 503.615 568.049 503.891 568.235 504.055L568.566 503.68ZM541.826 468.96L541.407 469.233L541.413 469.242L541.826 468.96ZM534.406 460.56L534.125 460.973V460.973L534.406 460.56ZM531.326 456.78L531.284 457.278C531.293 457.279 531.302 457.28 531.312 457.28L531.326 456.78ZM536.226 456.92L536.212 457.42C536.216 457.42 536.221 457.42 536.226 457.42V456.92ZM548.266 456.64L548.257 456.14L548.247 456.14L548.266 456.64ZM555.826 456.5V456L555.817 456L555.826 456.5ZM549.946 464.48L550.359 464.198C550.354 464.191 550.348 464.183 550.342 464.175L549.946 464.48ZM573.886 499.62L574.224 499.988C574.407 499.82 574.439 499.544 574.299 499.338L573.886 499.62ZM567.026 505.92L566.613 506.202C566.694 506.322 566.824 506.4 566.969 506.417C567.113 506.433 567.257 506.386 567.364 506.288L567.026 505.92ZM574.166 499.34H574.666C574.666 499.195 574.603 499.058 574.494 498.963C574.385 498.868 574.24 498.825 574.097 498.845L574.166 499.34ZM575.006 538.96L574.546 539.157V539.157L575.006 538.96ZM578.226 541.62L578.085 542.1L578.092 542.102L578.226 541.62ZM579.346 543.86L579.375 543.361C579.368 543.36 579.36 543.36 579.353 543.36L579.346 543.86ZM569.546 543.72L569.553 543.22C569.548 543.22 569.543 543.22 569.539 543.22L569.546 543.72ZM559.886 543.86L559.879 543.36C559.872 543.36 559.865 543.36 559.858 543.361L559.886 543.86ZM560.726 541.62L560.592 541.138L560.585 541.14L560.726 541.62ZM564.086 538.96L563.633 538.749C563.63 538.753 563.628 538.758 563.626 538.763L564.086 538.96ZM565.066 500.6L564.997 500.105C564.75 500.139 564.566 500.35 564.566 500.6H565.066ZM589.566 471.48L589.989 471.746C592.061 468.45 593.146 465.6 593.146 463.22H592.646H592.146C592.146 465.32 591.178 467.976 589.142 471.214L589.566 471.48ZM592.646 463.22H593.146C593.146 461.394 592.449 459.968 591.033 459.024C589.653 458.104 587.646 457.68 585.086 457.68V458.18V458.68C587.566 458.68 589.339 459.096 590.478 459.856C591.582 460.592 592.146 461.686 592.146 463.22H592.646ZM585.086 458.18V457.68C585.18 457.68 585.264 457.721 585.317 457.774C585.357 457.814 585.36 457.841 585.35 457.812C585.33 457.75 585.306 457.605 585.306 457.34H584.806H584.306C584.306 457.635 584.329 457.91 584.401 458.128C584.47 458.333 584.66 458.68 585.086 458.68V458.18ZM584.806 457.34H585.306C585.306 457.075 585.33 456.93 585.35 456.868C585.36 456.839 585.357 456.866 585.317 456.906C585.264 456.959 585.18 457 585.086 457V456.5V456C584.66 456 584.47 456.347 584.401 456.552C584.329 456.77 584.306 457.045 584.306 457.34H584.806ZM585.086 456.5L585.075 457L591.655 457.14L591.666 456.64L591.676 456.14L585.096 456L585.086 456.5ZM591.666 456.64L591.639 457.139C595.193 457.326 598.469 457.42 601.466 457.42V456.92V456.42C598.489 456.42 595.232 456.327 591.692 456.141L591.666 456.64ZM601.466 456.92V457.42C603.071 457.42 604.999 457.326 607.247 457.138L607.206 456.64L607.164 456.142C604.933 456.328 603.034 456.42 601.466 456.42V456.92ZM607.206 456.64L607.219 457.14L612.399 457L612.386 456.5L612.372 456L607.192 456.14L607.206 456.64ZM612.386 456.5V457C612.291 457 612.207 456.959 612.155 456.906C612.115 456.866 612.112 456.839 612.121 456.868C612.142 456.93 612.166 457.075 612.166 457.34H612.666H613.166C613.166 457.045 613.143 456.77 613.07 456.552C613.002 456.347 612.811 456 612.386 456V456.5ZM612.666 457.34H612.166C612.166 457.605 612.142 457.75 612.121 457.812C612.112 457.841 612.115 457.814 612.155 457.774C612.207 457.721 612.291 457.68 612.386 457.68V458.18V458.68C612.811 458.68 613.002 458.333 613.07 458.128C613.143 457.91 613.166 457.635 613.166 457.34H612.666ZM612.386 458.18V457.68C608.894 457.68 605.387 458.991 601.871 461.556L602.166 461.96L602.461 462.364C605.852 459.889 609.157 458.68 612.386 458.68V458.18ZM602.166 461.96L601.878 461.551C598.361 464.022 595.238 467.435 592.503 471.773L592.926 472.04L593.349 472.307C596.027 468.058 599.064 464.751 602.453 462.369L602.166 461.96ZM592.926 472.04L592.507 471.767L570.527 505.507L570.946 505.78L571.365 506.053L593.345 472.313L592.926 472.04ZM570.946 505.78L571.277 505.405L568.897 503.305L568.566 503.68L568.235 504.055L570.615 506.155L570.946 505.78ZM568.566 503.68L568.985 503.953L589.985 471.753L589.566 471.48L589.147 471.207L568.147 503.407L568.566 503.68ZM541.826 468.96L542.245 468.687C539.617 464.652 537.1 461.788 534.687 460.147L534.406 460.56L534.125 460.973C536.378 462.506 538.808 465.242 541.407 469.233L541.826 468.96ZM534.406 460.56L534.687 460.147C532.263 458.498 529.456 457.68 526.286 457.68V458.18V458.68C529.275 458.68 531.882 459.448 534.125 460.973L534.406 460.56ZM526.286 458.18V457.68C526.303 457.68 526.341 457.686 526.379 457.711C526.415 457.735 526.423 457.757 526.418 457.746C526.412 457.734 526.397 457.698 526.385 457.625C526.373 457.554 526.366 457.461 526.366 457.34H525.866H525.366C525.366 457.646 525.401 457.949 525.524 458.194C525.588 458.323 525.684 458.45 525.825 458.544C525.968 458.639 526.128 458.68 526.286 458.68V458.18ZM525.866 457.34H526.366C526.366 457.219 526.373 457.126 526.385 457.055C526.397 456.982 526.412 456.946 526.418 456.934C526.423 456.923 526.415 456.945 526.379 456.969C526.341 456.994 526.303 457 526.286 457V456.5V456C526.128 456 525.968 456.041 525.825 456.136C525.684 456.23 525.588 456.357 525.524 456.486C525.401 456.731 525.366 457.034 525.366 457.34H525.866ZM526.286 456.5V457C527.384 457 529.047 457.092 531.284 457.278L531.326 456.78L531.367 456.282C529.124 456.095 527.427 456 526.286 456V456.5ZM531.326 456.78L531.312 457.28L536.212 457.42L536.226 456.92L536.24 456.42L531.34 456.28L531.326 456.78ZM536.226 456.92V457.42C539.408 457.42 543.428 457.326 548.285 457.14L548.266 456.64L548.247 456.14C543.397 456.327 539.39 456.42 536.226 456.42V456.92ZM548.266 456.64L548.275 457.14L555.835 457L555.826 456.5L555.817 456L548.257 456.14L548.266 456.64ZM555.826 456.5V457C555.731 457 555.647 456.959 555.595 456.906C555.555 456.866 555.552 456.839 555.561 456.868C555.582 456.93 555.606 457.075 555.606 457.34H556.106H556.606C556.606 457.045 556.583 456.77 556.51 456.552C556.442 456.347 556.251 456 555.826 456V456.5ZM556.106 457.34H555.606C555.606 457.605 555.582 457.75 555.561 457.812C555.552 457.841 555.555 457.814 555.595 457.774C555.647 457.721 555.731 457.68 555.826 457.68V458.18V458.68C556.251 458.68 556.442 458.333 556.51 458.128C556.583 457.91 556.606 457.635 556.606 457.34H556.106ZM555.826 458.18V457.68C553.38 457.68 551.482 457.925 550.179 458.451C549.522 458.716 548.988 459.064 548.615 459.515C548.236 459.975 548.046 460.517 548.046 461.12H548.546H549.046C549.046 460.743 549.159 460.427 549.386 460.152C549.621 459.868 549.996 459.604 550.553 459.379C551.676 458.925 553.418 458.68 555.826 458.68V458.18ZM548.546 461.12H548.046C548.046 462.299 548.58 463.525 549.549 464.785L549.946 464.48L550.342 464.175C549.444 463.008 549.046 461.994 549.046 461.12H548.546ZM549.946 464.48L549.533 464.762L573.473 499.902L573.886 499.62L574.299 499.338L550.359 464.198L549.946 464.48ZM573.886 499.62L573.548 499.252L566.688 505.552L567.026 505.92L567.364 506.288L574.224 499.988L573.886 499.62ZM567.026 505.92L567.439 505.638L542.239 468.678L541.826 468.96L541.413 469.242L566.613 506.202L567.026 505.92ZM574.166 499.34H573.666V532.66H574.166H574.666V499.34H574.166ZM574.166 532.66H573.666C573.666 535.565 573.944 537.752 574.546 539.157L575.006 538.96L575.465 538.763C574.948 537.555 574.666 535.541 574.666 532.66H574.166ZM575.006 538.96L574.546 539.157C575.175 540.624 576.381 541.599 578.085 542.1L578.226 541.62L578.367 541.14C576.897 540.708 575.957 539.91 575.465 538.763L575.006 538.96ZM578.226 541.62L578.092 542.102C579.84 542.587 582.51 542.82 586.066 542.82V542.32V541.82C582.528 541.82 579.971 541.586 578.36 541.138L578.226 541.62ZM586.066 542.32V542.82C586.048 542.82 586.011 542.814 585.972 542.789C585.937 542.765 585.928 542.743 585.934 542.754C585.94 542.766 585.954 542.802 585.966 542.875C585.978 542.946 585.986 543.039 585.986 543.16H586.486H586.986C586.986 542.854 586.95 542.551 586.828 542.306C586.763 542.177 586.667 542.05 586.527 541.956C586.383 541.861 586.223 541.82 586.066 541.82V542.32ZM586.486 543.16H585.986C585.986 543.281 585.978 543.374 585.966 543.445C585.954 543.518 585.94 543.554 585.934 543.566C585.928 543.577 585.937 543.555 585.972 543.531C586.011 543.506 586.048 543.5 586.066 543.5V544V544.5C586.223 544.5 586.383 544.459 586.527 544.364C586.667 544.27 586.763 544.143 586.828 544.014C586.95 543.769 586.986 543.466 586.986 543.16H586.486ZM586.066 544V543.5C583.176 543.5 580.947 543.453 579.375 543.361L579.346 543.86L579.316 544.359C580.918 544.453 583.169 544.5 586.066 544.5V544ZM579.346 543.86L579.353 543.36L569.553 543.22L569.546 543.72L569.539 544.22L579.339 544.36L579.346 543.86ZM569.546 543.72L569.539 543.22L559.879 543.36L559.886 543.86L559.893 544.36L569.553 544.22L569.546 543.72ZM559.886 543.86L559.858 543.361C558.192 543.453 555.915 543.5 553.026 543.5V544V544.5C555.923 544.5 558.22 544.453 559.914 544.359L559.886 543.86ZM553.026 544V543.5C553.043 543.5 553.081 543.506 553.119 543.531C553.155 543.555 553.163 543.577 553.158 543.566C553.152 543.554 553.137 543.518 553.125 543.445C553.113 543.374 553.106 543.281 553.106 543.16H552.606H552.106C552.106 543.466 552.141 543.769 552.264 544.014C552.328 544.143 552.424 544.27 552.565 544.364C552.708 544.459 552.868 544.5 553.026 544.5V544ZM552.606 543.16H553.106C553.106 543.039 553.113 542.946 553.125 542.875C553.137 542.802 553.152 542.766 553.158 542.754C553.163 542.743 553.155 542.765 553.119 542.789C553.081 542.814 553.043 542.82 553.026 542.82V542.32V541.82C552.868 541.82 552.708 541.861 552.565 541.956C552.424 542.05 552.328 542.177 552.264 542.306C552.141 542.551 552.106 542.854 552.106 543.16H552.606ZM553.026 542.32V542.82C556.579 542.82 559.207 542.588 560.867 542.1L560.726 541.62L560.585 541.14C559.072 541.585 556.566 541.82 553.026 541.82V542.32ZM560.726 541.62L560.86 542.102C562.649 541.605 563.912 540.635 564.545 539.157L564.086 538.96L563.626 538.763C563.139 539.899 562.162 540.702 560.592 541.138L560.726 541.62ZM564.086 538.96L564.539 539.171C565.239 537.671 565.566 535.483 565.566 532.66H565.066H564.566C564.566 535.437 564.239 537.449 563.633 538.749L564.086 538.96ZM565.066 532.66H565.566V500.6H565.066H564.566V532.66H565.066ZM565.066 500.6L565.134 501.095L574.234 499.835L574.166 499.34L574.097 498.845L564.997 500.105L565.066 500.6Z" fill="black"/>
</svg>
